<svg id="Layer_1" data-name="Layer 1" xmlns="http://www.w3.org/2000/svg" viewBox="0 0 160.18 47.44"><defs><style>.cls-1,.cls-2{fill:#ed1c24}.cls-1{fill-rule:evenodd}</style></defs><title>Artboard 4</title><path class="cls-1" d="M71.95 30.5V8.37L92.08 30.5h14.21V.3H94.74v23.03L73.43.3H60.1v30.2h11.85zm88.23 0v-5.68h-29.32c-4.74 0-4.14-2.69-4.14-4.78v-7.78c0-2.09-.59-5.68 4.14-6.28h29.31V.3h-35.82c-8 0-12.14 7.48-12.14 15.55 0 7.78 3 14.65 11.84 14.65zm-146.56.3C3.26 30.8 0 23.63 0 15.85 0 7.48 4.74 0 13.92 0H52.4v5.68H19.54c-5 .9-4.74 4.19-4.74 6.28l.3 7.77c0 2.09-.59 6 4.44 5.68h18.65a5 5 0 0 0 3-3.89v-3H26.94v-5.36H52.4V30.8z"/><path class="cls-2" d="M2.49 35.75h2.09V46h7.75v1.39H2.49zm18.95 0h2.11v11.7h-2.11zm11.5 0l4.44 10 4.39-10h2.35l-5.64 11.7h-2.23l-5.63-11.7zm17.92 0h11.21v1.43H52.9v3.55h8.48v1.35H52.9v4h9.33v1.39H50.86zm35.95 0l2.91 9.5 3.49-9.5h2.26L99 45.26l2.91-9.52h2.29l-4.06 11.7h-2.2l-3.57-9.7-3.59 9.7h-2.2l-4-11.7zm25.4 0h11.21v1.43h-9.17v3.55h8.48v1.35h-8.48v4h9.33v1.39h-11.37zm19.06 0h2.09V46h7.75v1.39h-9.85zm17.94 0h2.09V46h7.75v1.39h-9.85z"/></svg>